<svg width="34" height="30" viewBox="0 0 34 30" fill="none" xmlns="http://www.w3.org/2000/svg">
<path d="M7.3869 5C6.43684 5 5.66667 5.67957 5.66667 6.51786V8.48214C5.66667 9.32043 6.43684 10 7.3869 10H9.61309C10.5632 10 11.3333 9.32043 11.3333 8.48214V6.51786C11.3333 5.67957 10.5632 5 9.61309 5H7.3869ZM7.3869 3.75H9.61309C11.3456 3.75 12.75 4.98921 12.75 6.51786V8.48214C12.75 10.0108 11.3456 11.25 9.61309 11.25H7.3869C5.65444 11.25 4.25 10.0108 4.25 8.48214V6.51786C4.25 4.98921 5.65444 3.75 7.3869 3.75ZM7.3869 18.75H9.61309C11.3456 18.75 12.75 19.9892 12.75 21.5179V23.4821C12.75 25.0108 11.3456 26.25 9.61309 26.25H7.3869C5.65444 26.25 4.25 25.0108 4.25 23.4821V21.5179C4.25 19.9892 5.65444 18.75 7.3869 18.75ZM7.3869 20C6.43684 20 5.66667 20.6796 5.66667 21.5179V23.4821C5.66667 24.3204 6.43684 25 7.3869 25H9.61309C10.5632 25 11.3333 24.3204 11.3333 23.4821V21.5179C11.3333 20.6796 10.5632 20 9.61309 20H7.3869ZM24.3869 3.75H26.6131C28.3456 3.75 29.75 4.98921 29.75 6.51786V8.48214C29.75 10.0108 28.3456 11.25 26.6131 11.25H24.3869C22.6544 11.25 21.25 10.0108 21.25 8.48214V6.51786C21.25 4.98921 22.6544 3.75 24.3869 3.75ZM24.3869 5C23.4368 5 22.6667 5.67957 22.6667 6.51786V8.48214C22.6667 9.32043 23.4368 10 24.3869 10H26.6131C27.5632 10 28.3333 9.32043 28.3333 8.48214V6.51786C28.3333 5.67957 27.5632 5 26.6131 5H24.3869ZM18.4167 25V24.375C18.4167 24.0298 18.7338 23.75 19.125 23.75C19.5162 23.75 19.8333 24.0298 19.8333 24.375V25H20.5417C20.9329 25 21.25 25.2798 21.25 25.625C21.25 25.9702 20.9329 26.25 20.5417 26.25H17.7083C17.3171 26.25 17 25.9702 17 25.625C17 25.2798 17.3171 25 17.7083 25H18.4167ZM18.4167 13.75H19.8333V13.125C19.8333 12.7798 20.1505 12.5 20.5417 12.5C20.9329 12.5 21.25 12.7798 21.25 13.125V14.375C21.25 14.7202 20.9329 15 20.5417 15H16.2917C15.9005 15 15.5833 14.7202 15.5833 14.375C15.5833 14.0298 15.9005 13.75 16.2917 13.75H17V12.5H16.2917C15.9005 12.5 15.5833 12.2202 15.5833 11.875C15.5833 11.5298 15.9005 11.25 16.2917 11.25H17.7083C18.0995 11.25 18.4167 11.5298 18.4167 11.875V13.75ZM26.9167 15V15.625C26.9167 15.9702 26.5995 16.25 26.2083 16.25C25.8171 16.25 25.5 15.9702 25.5 15.625V13.125C25.5 12.7798 25.8171 12.5 26.2083 12.5C26.5995 12.5 26.9167 12.7798 26.9167 13.125V13.75H28.3333V13.125C28.3333 12.7798 28.6505 12.5 29.0417 12.5C29.4329 12.5 29.75 12.7798 29.75 13.125V14.375C29.75 14.7202 29.4329 15 29.0417 15H26.9167ZM18.4167 17.5H16.2917C15.9005 17.5 15.5833 17.2202 15.5833 16.875C15.5833 16.5298 15.9005 16.25 16.2917 16.25H19.125C19.5162 16.25 19.8333 16.5298 19.8333 16.875V19.375C19.8333 19.7202 19.5162 20 19.125 20H14.875C14.4838 20 14.1667 19.7202 14.1667 19.375C14.1667 19.0298 14.4838 18.75 14.875 18.75H18.4167V17.5ZM7.79167 6.25H9.20833C9.59953 6.25 9.91667 6.52982 9.91667 6.875V8.125C9.91667 8.47018 9.59953 8.75 9.20833 8.75H7.79167C7.40047 8.75 7.08333 8.47018 7.08333 8.125V6.875C7.08333 6.52982 7.40047 6.25 7.79167 6.25ZM7.79167 21.25H9.20833C9.59953 21.25 9.91667 21.5298 9.91667 21.875V23.125C9.91667 23.4702 9.59953 23.75 9.20833 23.75H7.79167C7.40047 23.75 7.08333 23.4702 7.08333 23.125V21.875C7.08333 21.5298 7.40047 21.25 7.79167 21.25ZM24.7917 6.25H26.2083C26.5995 6.25 26.9167 6.52982 26.9167 6.875V8.125C26.9167 8.47018 26.5995 8.75 26.2083 8.75H24.7917C24.4005 8.75 24.0833 8.47018 24.0833 8.125V6.875C24.0833 6.52982 24.4005 6.25 24.7917 6.25ZM18.4167 6.25V5H15.5833V6.875C15.5833 7.22018 15.2662 7.5 14.875 7.5C14.4838 7.5 14.1667 7.22018 14.1667 6.875V4.375C14.1667 4.02982 14.4838 3.75 14.875 3.75H19.125C19.5162 3.75 19.8333 4.02982 19.8333 4.375V6.875C19.8333 7.22018 19.5162 7.5 19.125 7.5H17.7083C17.3171 7.5 17 7.22018 17 6.875C17 6.52982 17.3171 6.25 17.7083 6.25H18.4167ZM14.875 10C14.4838 10 14.1667 9.72018 14.1667 9.375C14.1667 9.02982 14.4838 8.75 14.875 8.75H19.125C19.5162 8.75 19.8333 9.02982 19.8333 9.375C19.8333 9.72018 19.5162 10 19.125 10H14.875ZM15.5833 22.5V25.625C15.5833 25.9702 15.2662 26.25 14.875 26.25C14.4838 26.25 14.1667 25.9702 14.1667 25.625V21.875C14.1667 21.5298 14.4838 21.25 14.875 21.25H19.125C19.5162 21.25 19.8333 21.5298 19.8333 21.875C19.8333 22.2202 19.5162 22.5 19.125 22.5H15.5833ZM12.75 15H13.4583C13.8495 15 14.1667 15.2798 14.1667 15.625V16.875C14.1667 17.2202 13.8495 17.5 13.4583 17.5C13.0671 17.5 12.75 17.2202 12.75 16.875V16.25H12.0417C11.6505 16.25 11.3333 15.9702 11.3333 15.625V13.125C11.3333 12.7798 11.6505 12.5 12.0417 12.5H13.4583C13.8495 12.5 14.1667 12.7798 14.1667 13.125C14.1667 13.4702 13.8495 13.75 13.4583 13.75H12.75V15ZM8.5 13.75H7.79167C7.40047 13.75 7.08333 13.4702 7.08333 13.125C7.08333 12.7798 7.40047 12.5 7.79167 12.5H9.20833C9.59953 12.5 9.91667 12.7798 9.91667 13.125V16.875C9.91667 17.2202 9.59953 17.5 9.20833 17.5C8.81713 17.5 8.5 17.2202 8.5 16.875V13.75ZM22.6667 13.125C22.6667 12.7798 22.9838 12.5 23.375 12.5C23.7662 12.5 24.0833 12.7798 24.0833 13.125V15.625C24.0833 15.9702 23.7662 16.25 23.375 16.25C22.9838 16.25 22.6667 15.9702 22.6667 15.625V13.125ZM28.3333 17.5V16.875C28.3333 16.5298 28.6505 16.25 29.0417 16.25C29.4329 16.25 29.75 16.5298 29.75 16.875V18.125C29.75 18.4702 29.4329 18.75 29.0417 18.75H24.7917C24.4005 18.75 24.0833 18.4702 24.0833 18.125C24.0833 17.7798 24.4005 17.5 24.7917 17.5H28.3333ZM22.6667 20H26.2083C26.5995 20 26.9167 20.2798 26.9167 20.625C26.9167 20.9702 26.5995 21.25 26.2083 21.25H21.9583C21.5671 21.25 21.25 20.9702 21.25 20.625V18.125C21.25 17.7798 21.5671 17.5 21.9583 17.5C22.3495 17.5 22.6667 17.7798 22.6667 18.125V20ZM28.3333 25V20.625C28.3333 20.2798 28.6505 20 29.0417 20C29.4329 20 29.75 20.2798 29.75 20.625V25.625C29.75 25.9702 29.4329 26.25 29.0417 26.25H23.375C22.9838 26.25 22.6667 25.9702 22.6667 25.625C22.6667 25.2798 22.9838 25 23.375 25H28.3333ZM21.9583 23.75C21.5671 23.75 21.25 23.4702 21.25 23.125C21.25 22.7798 21.5671 22.5 21.9583 22.5H26.2083C26.5995 22.5 26.9167 22.7798 26.9167 23.125C26.9167 23.4702 26.5995 23.75 26.2083 23.75H21.9583ZM5.66667 16.25H6.375C6.7662 16.25 7.08333 16.5298 7.08333 16.875C7.08333 17.2202 6.7662 17.5 6.375 17.5H4.95833C4.56713 17.5 4.25 17.2202 4.25 16.875V13.125C4.25 12.7798 4.56713 12.5 4.95833 12.5C5.34953 12.5 5.66667 12.7798 5.66667 13.125V16.25Z" fill="black"/>
</svg>
